<?xml version="1.0" standalone="no"?>
<!DOCTYPE svg PUBLIC "-//W3C//DTD SVG 20010904//EN"
 "http://www.w3.org/TR/2001/REC-SVG-20010904/DTD/svg10.dtd">
<svg version="1.0" xmlns="http://www.w3.org/2000/svg"
 width="512.000000pt" height="512.000000pt" viewBox="0 0 512.000000 512.000000"
 preserveAspectRatio="xMidYMid meet">

<g transform="translate(0.000000,512.000000) scale(0.100000,-0.100000)"
fill="#000000" stroke="none">
<path d="M2321 5110 c-1340 -130 -2361 -1283 -2318 -2620 13 -389 97 -726 268
-1069 249 -502 647 -900 1150 -1150 815 -406 1779 -350 2539 147 297 194 579
482 771 788 74 116 184 342 234 478 51 138 110 376 131 531 23 157 26 521 6
660 -59 415 -191 769 -410 1099 -92 140 -185 254 -315 385 -399 403 -895 653
-1462 737 -122 18 -466 26 -594 14z m760 -1457 c35 -16 93 -49 129 -72 74 -48
91 -49 195 -11 71 26 161 23 248 -10 137 -51 218 -194 204 -359 -9 -110 -48
-218 -261 -726 -162 -384 -200 -581 -131 -663 29 -34 102 -60 195 -67 91 -8
176 -34 205 -63 60 -60 53 -154 -15 -200 -64 -43 -132 -55 -270 -49 -224 10
-338 54 -450 173 -99 107 -147 233 -138 364 6 85 44 178 230 568 179 376 190
403 191 466 1 41 -3 52 -27 72 -31 28 -47 29 -85 10 -61 -32 -99 -97 -371
-641 -192 -383 -285 -560 -309 -583 -99 -100 -262 -95 -320 8 -40 72 -32 111
85 412 186 477 196 507 198 575 1 48 -3 68 -20 90 -42 57 -111 66 -167 23 -28
-23 -98 -192 -307 -750 -136 -364 -212 -530 -267 -588 -58 -60 -135 -85 -248
-80 -70 3 -102 10 -145 30 -159 73 -242 233 -211 403 13 72 237 815 322 1069
100 302 171 417 296 483 169 90 278 84 490 -27 158 -83 173 -81 298 25 159
135 204 156 316 152 59 -3 90 -10 140 -34z"/>
</g>
</svg>
